<svg width="32" height="32" viewBox="0 0 32 32" fill="none" xmlns="http://www.w3.org/2000/svg">
<path fill-rule="evenodd" clip-rule="evenodd" d="M18.5077 18.5214C19.0735 17.944 20.0004 17.9389 20.5757 18.5069C20.582 18.5109 20.5876 18.5158 20.5924 18.5214L23.9456 21.9263L27.3024 18.5214C27.4385 18.3831 27.6008 18.2732 27.7797 18.1983C27.9587 18.1233 28.1508 18.0846 28.3448 18.0846C28.5388 18.0846 28.7309 18.1233 28.9099 18.1983C29.0889 18.2732 29.2511 18.3831 29.3872 18.5214C29.666 18.803 29.8224 19.1832 29.8224 19.5794C29.8224 19.9757 29.666 20.3559 29.3872 20.6375L26.034 24.0423L29.3872 27.4472C29.666 27.7288 29.8224 28.109 29.8224 28.5052C29.8224 28.9015 29.666 29.2817 29.3872 29.5633C28.8214 30.1385 27.8944 30.1458 27.3163 29.5778C27.3134 29.572 27.3083 29.5691 27.3017 29.5633L23.9456 26.1591L20.5924 29.564C20.0237 30.1392 19.0961 30.1465 18.5216 29.5786C18.5157 29.5727 18.5099 29.5698 18.507 29.564C18.2282 29.2824 18.0718 28.9022 18.0718 28.506C18.0718 28.1097 18.2282 27.7295 18.507 27.448L21.8609 24.0431L18.5077 20.6382C18.2289 20.3566 18.0725 19.9764 18.0725 19.5802C18.0725 19.1839 18.2289 18.8037 18.5077 18.5222V18.5214Z" fill="black"/>
<path d="M28.9349 7.98573C28.9363 8.64109 28.8078 9.29024 28.5568 9.89566C28.3059 10.5011 27.9374 11.0508 27.4728 11.5129C27.0106 11.9776 26.4609 12.346 25.8555 12.597C25.2501 12.848 24.6009 12.9765 23.9456 12.9751H18.9598V7.98573C18.9587 7.33088 19.0872 6.6823 19.338 6.0774C19.5889 5.4725 19.957 4.92328 20.4213 4.46143C20.8831 3.99719 21.4323 3.62904 22.0372 3.3782C22.6421 3.12737 23.2907 2.99883 23.9456 3.00001C25.3254 3.00001 26.5713 3.55705 27.4728 4.46215C27.9371 4.92394 28.3054 5.47314 28.5564 6.07804C28.8073 6.68294 28.936 7.33156 28.9349 7.98645V7.98573ZM12.9751 23.9456C12.9765 24.6009 12.848 25.2501 12.597 25.8555C12.346 26.4609 11.9776 27.0106 11.5129 27.4728C11.0508 27.9374 10.5011 28.3059 9.89566 28.5568C9.29024 28.8078 8.6411 28.9363 7.98573 28.9349H3.00001V23.9456C2.99884 23.2907 3.12738 22.6421 3.37821 22.0372C3.62904 21.4323 3.9972 20.8831 4.46143 20.4213C4.92328 19.957 5.47251 19.5889 6.0774 19.338C6.6823 19.0872 7.33089 18.9587 7.98573 18.9598C9.36559 18.9598 10.6115 19.5169 11.5129 20.4213C11.9773 20.883 12.3456 21.4322 12.5966 22.0371C12.8475 22.642 12.9762 23.2907 12.9751 23.9456V23.9456ZM7.98573 3.00001C9.36559 3.00001 10.6115 3.55705 11.5129 4.46143C11.9773 4.92322 12.3456 5.47241 12.5966 6.07731C12.8475 6.68221 12.9762 7.33083 12.9751 7.98573V12.9751H7.98573C7.33084 12.9762 6.68222 12.8475 6.07732 12.5966C5.47242 12.3456 4.92322 11.9773 4.46143 11.5129C3.99691 11.0507 3.6286 10.501 3.37776 9.89557C3.12692 9.29016 2.99853 8.64104 3.00001 7.98573C2.99884 7.33088 3.12738 6.6823 3.37821 6.0774C3.62904 5.4725 3.9972 4.92328 4.46143 4.46143C4.92328 3.99719 5.47251 3.62904 6.0774 3.3782C6.6823 3.12737 7.33089 2.99883 7.98573 3.00001V3.00001Z" stroke="black" stroke-width="4.521"/>
</svg>
